<svg xmlns="http://www.w3.org/2000/svg" viewBox="0 0 64 64">
  <title>Jake portfolio paw</title>
  <rect width="64" height="64" rx="16" fill="#1b1f22"/>
  <g fill="#91bdff">
    <ellipse cx="17" cy="25" rx="5" ry="7" transform="rotate(-28 17 25)"/>
    <ellipse cx="27" cy="17" rx="5" ry="7" transform="rotate(-8 27 17)"/>
    <ellipse cx="39" cy="17" rx="5" ry="7" transform="rotate(8 39 17)"/>
    <ellipse cx="49" cy="25" rx="5" ry="7" transform="rotate(28 49 25)"/>
    <path d="M19 45c0-8 5-13 11-18 2-2 6-2 8 0 6 5 11 10 11 18 0 8-6 12-13 9-2-1-5-1-7 0-7 3-10-1-10-9Z"/>
  </g>
</svg>
